<svg width="32" height="32" viewBox="0 0 32 32" fill="none" xmlns="http://www.w3.org/2000/svg">
<path d="M26.3703 2.66675C27.1562 2.66675 27.9098 2.97892 28.4655 3.53458C29.0211 4.09024 29.3333 4.84388 29.3333 5.62971V26.3705C29.3333 27.1563 29.0211 27.9099 28.4655 28.4656C27.9098 29.0212 27.1562 29.3334 26.3703 29.3334H5.62959C4.84376 29.3334 4.09012 29.0212 3.53446 28.4656C2.97879 27.9099 2.66663 27.1563 2.66663 26.3705V5.62971C2.66663 4.84388 2.97879 4.09024 3.53446 3.53458C4.09012 2.97892 4.84376 2.66675 5.62959 2.66675H26.3703ZM25.6296 25.6297V17.7779C25.6296 16.497 25.1208 15.2685 24.215 14.3628C23.3093 13.4571 22.0809 12.9482 20.8 12.9482C19.5407 12.9482 18.074 13.7186 17.3629 14.8742V13.2297H13.2296V25.6297H17.3629V18.326C17.3629 17.1853 18.2814 16.2519 19.4222 16.2519C19.9723 16.2519 20.4998 16.4705 20.8888 16.8594C21.2777 17.2484 21.4963 17.7759 21.4963 18.326V25.6297H25.6296ZM8.41477 10.9038C9.07487 10.9038 9.70793 10.6416 10.1747 10.1748C10.6414 9.70805 10.9037 9.07499 10.9037 8.4149C10.9037 7.03712 9.79255 5.91119 8.41477 5.91119C7.75075 5.91119 7.11392 6.17497 6.64439 6.64451C6.17485 7.11405 5.91107 7.75087 5.91107 8.4149C5.91107 9.79267 7.037 10.9038 8.41477 10.9038ZM10.474 25.6297V13.2297H6.37033V25.6297H10.474Z" fill="#EBEBEB"/>
</svg>
