<svg width="144" height="144" viewBox="0 0 144 144" fill="none" xmlns="http://www.w3.org/2000/svg">
<g clip-path="url(#clip0_86_12)">
<path d="M7.272 0L0 7.272L12.8105 29.4258L21.1182 28.2074L71.8283 78.9231L67.5028 83.0769C65.2874 85.2923 65.2874 88.6486 67.5028 90.864L69.7514 93.1182C71.9668 95.3335 75.3563 95.3335 77.0178 93.1182L83.5975 99.6923C83.0437 103.015 83.5975 106.964 86.3668 109.734L116.308 139.503C122.4 145.595 132.369 145.595 138.462 139.503C145.662 132.857 145.595 122.921 139.503 116.828L109.734 86.8818C106.964 84.1126 103.015 83.0049 99.6923 84.1126L92.4203 77.5385C94.0819 75.3231 94.0819 71.9335 92.4203 70.2665L90.3434 68.1951C89.8399 67.67 89.2354 67.2523 88.5663 66.9669C87.8972 66.6815 87.1773 66.5343 86.4498 66.5343C85.7224 66.5343 85.0025 66.6815 84.3334 66.9669C83.6643 67.2523 83.0598 67.67 82.5563 68.1951L78.9231 71.8283L28.2129 21.1182L29.4203 12.8105L7.272 0ZM115.272 0.171692C104.345 -0.736615 89.856 6.50769 83.0769 12.8049C74.736 21.1458 76.0985 32.0511 82.728 42.5797L70.9643 54.3489L79.272 63.6923C83.7028 59.8154 90.2382 59.8154 94.6689 63.6923L96.9231 65.9409L97.4437 66.4615L102.29 61.6154C112.303 67.5028 122.727 68.3502 130.674 60.4025C138.428 53.2025 146.836 35.4462 142.959 24.9231L127.385 41.0178C125.169 43.2332 121.813 43.2332 119.598 41.0178L103.497 24.9231C102.972 24.4196 102.554 23.8151 102.269 23.146C101.984 22.4769 101.836 21.757 101.836 21.0295C101.836 20.3021 101.984 19.5822 102.269 18.9131C102.554 18.244 102.972 17.6395 103.497 17.136L119.603 1.04123C118.218 0.553846 116.834 0.304615 115.272 0.171692ZM54.3489 69.2308L34.2665 89.3077C32.1084 88.8282 29.9029 88.596 27.6923 88.6154C12.1846 88.6154 0 100.8 0 116.308C0 131.815 12.1846 144 27.6923 144C43.2 144 55.3846 131.815 55.3846 116.308C55.3846 113.466 54.936 110.736 54.1717 108.172L65.9409 96.4025L64.2129 94.1538C59.7822 89.7231 59.8154 83.0105 63.6923 78.5742L54.3489 69.2308ZM97.272 94.5028C97.9643 94.5028 98.6178 94.6357 99.1717 95.1951L131.887 127.905C132.995 129.013 132.995 130.774 131.887 131.882C130.78 132.99 129.007 132.99 127.9 131.882L95.1951 99.1717C94.0874 98.064 94.0874 96.3028 95.1951 95.1951C95.7489 94.6412 96.5797 94.5028 97.272 94.5028ZM31.5028 101.935L42.0591 112.497L38.2486 126.858L23.8874 130.669L13.3255 120.107L17.136 105.746L31.5028 101.935Z" fill="#EBEBEB"/>
</g>
<defs>
<clipPath id="clip0_86_12">
<rect width="144" height="144" fill="white"/>
</clipPath>
</defs>
</svg>
