<svg width="528" height="528" viewBox="0 0 528 528" fill="none" xmlns="http://www.w3.org/2000/svg">
<g clip-path="url(#clip0_80_10)">
<path d="M312.83 520.079C299.953 523.802 287.347 526.587 274.298 527.526C255.609 528.87 237.434 526.119 219.472 521.53C182.099 511.984 148.873 494.054 118.328 470.839C104.391 460.246 91.0348 448.954 78.0668 437.197C75.846 435.183 74.6379 432.981 74.65 429.831C74.7449 405.166 74.6975 380.5 74.7207 355.834C74.722 354.379 74.4165 352.816 75.7549 351.319C78.7086 351.133 80.2043 353.659 82.0117 355.379C101.685 374.1 120.812 393.397 141.088 411.483C163.568 431.536 187.18 449.997 215.611 461.003C257.398 477.18 297.256 474.581 333.778 446.955C354.126 431.562 367.158 410.948 371.144 385.732C375.693 356.958 369.773 330.568 348.033 309.596C336.215 298.196 321.954 292.138 305.169 292.27C278.172 292.483 251.171 292.416 224.172 292.31C186.301 292.162 155.896 276.369 132.507 247.128C110.974 220.207 100.501 188.955 102.022 154.674C104.669 95.0005 132.315 49.877 184.279 19.9658C185.258 19.4018 186.366 19.0595 187.392 18.6232C191.185 25.5126 189.324 33.4934 183.196 37.4882C147.825 60.5439 125.583 92.6551 118.81 134.384C112.64 172.397 119.918 207.839 144.619 238.29C165.234 263.704 191.878 277.734 225.181 277.698C252.014 277.67 278.85 277.967 305.677 277.586C330.81 277.23 350.359 288.06 365.919 306.776C378.778 322.243 384.66 340.577 386.427 360.512C391.406 416.666 353.286 464.53 300.986 480.286C262.382 491.916 226.206 484.202 191.505 466.307C161.404 450.784 136.517 428.299 112.219 405.151C106.067 399.29 100.015 393.323 93.9065 387.415C92.848 386.392 91.8885 385.192 90.3212 384.916C88.7853 386.133 89.3873 387.755 89.3853 389.157C89.3706 399.323 89.4043 409.488 89.4925 419.653C89.529 423.863 90.1012 427.693 93.6502 430.888C121.016 455.519 149.915 477.94 183.727 493.18C212.278 506.048 241.948 514.741 273.637 512.545C333.163 508.42 391.451 468.766 407.686 405.068C420.157 356.139 408.741 312.855 372.941 277.042C349.472 253.564 320.319 244.767 287.193 246.454C261.26 247.775 235.092 248.819 209.285 245.926C183.7 243.057 163.989 228.898 152.409 205.8C133.492 168.071 137.515 131.077 160.183 96.2992C178.493 68.2067 205.426 52.0795 238.073 45.6651C286.208 36.2079 328.893 50.1451 368.406 76.9462C368.793 77.2087 369.025 77.701 369.713 78.5735C366.852 82.2114 362.957 84.7895 358.997 86.887C356.417 88.2535 354.094 85.4476 351.916 84.0698C335.176 73.4799 317.436 65.1909 297.983 61.0605C266.012 54.2721 234.758 55.8889 206.054 72.7554C172.273 92.6057 155.19 122.518 155.991 162.121C156.295 177.144 160.122 191.147 168.476 203.647C180.013 220.909 196.038 231.222 217.084 231.626C244.573 232.153 272.081 232.084 299.576 231.788C329.126 231.47 354.781 241.583 377.057 260.332C404.498 283.427 420.007 313.416 425.286 348.654C435.957 419.872 393.306 489.682 323.536 516.211C320.114 517.512 316.658 518.721 312.83 520.079Z" fill="#FB2D45"/>
<path d="M143.503 314.553C113.023 293.085 94.0037 263.723 82.0744 229.394C72.6617 202.307 69.1562 174.375 71.8593 145.78C72.2405 141.747 72.0926 137.458 74.5798 133.054C80.4702 139.033 87.2789 143.034 86.4681 153.446C83.3353 193.678 93.6444 230.824 115.535 264.47C135.612 295.328 163.878 314.971 200.319 322.068C205.844 323.144 211.489 323.756 217.188 323.715C231.852 323.611 246.517 323.656 261.181 323.696C279.856 323.747 298.342 337.048 304.341 354.691C312.369 378.301 299.497 403.322 275.517 410.721C247.87 419.251 219.232 403.357 213.323 376.41C212.374 372.085 213.386 370.409 217.752 370.736C219.079 370.835 220.431 370.89 221.748 370.749C225.337 370.365 226.905 371.902 228.006 375.418C233.785 393.879 254.79 403.661 272.793 396.544C285.71 391.438 293.982 378.945 292.607 366.619C291.092 353.033 279.614 341.216 265.872 339.339C250.444 337.232 234.923 338.607 219.448 338.432C196.997 338.18 176.024 332.563 156.26 322.155C151.992 319.908 147.945 317.241 143.503 314.553Z" fill="#FB2D45"/>
<path d="M425.371 254.693C462.53 309.456 463.003 377.766 451.128 414.937C447.206 412.608 445.567 408.395 442.598 405.464C438.731 401.646 440.913 397.484 441.504 393.297C448.039 347.002 439.856 303.82 413.921 264.484C392.69 232.282 363.458 211.454 325.699 202.922C314.246 200.334 302.609 200.202 290.927 200.47C276.105 200.81 261.278 200.884 246.452 201.044C245.656 201.053 244.856 200.8 244.034 200.665C245.942 194.087 256.231 185.743 262.444 185.791C280.1 185.928 297.874 184.24 315.39 186.368C362.303 192.066 398.509 215.685 425.371 254.693Z" fill="#FB2D45"/>
<path d="M230.688 18.7708C224.445 20.6066 218.596 22.3105 212.593 24.0596C213.993 13.3694 220.763 5.84898 230.469 3.63139C263.801 -3.98409 296.29 0.0649862 328.158 11.026C367.706 24.629 401.387 47.9532 432.674 75.0945C438.961 80.5484 445.026 86.2576 451.263 91.7706C453.563 93.8036 454.416 96.155 454.399 99.2377C454.298 117.725 454.289 136.213 454.439 154.7C454.467 158.149 453.365 160.456 450.288 161.869C447.038 163.361 444.246 165.909 440.617 166.489C439.177 164.346 439.694 162.291 439.686 160.358C439.613 143.369 439.506 126.38 439.644 109.392C439.688 104.011 437.923 100.068 433.862 96.3453C409.578 74.0861 383.734 54.031 354.446 38.7029C327.099 24.3908 298.214 15.3896 267.186 14.5605C255.035 14.2358 242.939 15.7023 230.688 18.7708Z" fill="#FB2D45"/>
<path d="M273.77 130.173C253.828 126.495 237.731 138.389 235.586 158.077C235.409 159.7 235.55 161.404 235.828 163.022C237.237 171.233 233.744 178.424 226.132 182.759C218.617 171.869 219.504 149.309 227.959 136.272C238.538 119.961 257.268 111.878 277.411 115.929C292.718 119.008 304.181 127.621 311.286 143.391C303.309 142.709 296.149 145.804 290.322 138.558C286.416 133.702 280.361 131.486 273.77 130.173Z" fill="#FB2D45"/>
</g>
<defs>
<clipPath id="clip0_80_10">
<rect width="387" height="528" fill="white" transform="translate(71)"/>
</clipPath>
</defs>
</svg>
